<?xml version="1.0" standalone="no"?>
<!DOCTYPE svg PUBLIC "-//W3C//DTD SVG 20010904//EN"
 "http://www.w3.org/TR/2001/REC-SVG-20010904/DTD/svg10.dtd">
<svg version="1.0" xmlns="http://www.w3.org/2000/svg"
 width="512.000000pt" height="512.000000pt" viewBox="0 0 512.000000 512.000000"
 preserveAspectRatio="xMidYMid meet">
<metadata>
Created by potrace 1.14, written by Peter Selinger 2001-2017
</metadata>
<g transform="translate(0.000000,512.000000) scale(0.100000,-0.100000)"
fill="#000000" stroke="none">
<path d="M2790 4106 c-244 -45 -457 -186 -593 -391 -50 -75 -117 -225 -117
-263 0 -35 -28 -81 -53 -87 -55 -14 -70 -10 -101 30 -149 190 -294 280 -497
311 -325 48 -629 -108 -776 -399 -43 -86 -83 -245 -83 -331 0 -93 35 -227 87
-336 78 -161 239 -303 412 -361 47 -16 62 -26 67 -44 13 -51 3 -60 -63 -63
-49 -2 -75 3 -125 24 -35 15 -76 31 -93 36 -46 14 -165 22 -165 10 0 -5 43
-98 95 -206 60 -126 99 -196 109 -196 29 0 63 22 80 51 16 28 20 29 92 29 l74
0 0 -460 0 -460 1285 0 1285 0 0 765 0 765 -90 0 c-49 0 -90 3 -90 6 0 3 23
32 52 63 109 120 173 226 216 361 95 298 18 639 -197 872 -203 220 -521 327
-811 274z m249 -417 c224 -51 379 -282 343 -511 -31 -203 -207 -368 -411 -385
-238 -19 -450 147 -491 386 -38 215 124 460 338 510 51 12 168 13 221 0z
m-1565 -345 c75 -37 157 -125 187 -201 31 -79 31 -186 1 -265 -97 -245 -403
-316 -597 -137 -61 57 -92 112 -110 195 -39 183 64 360 248 426 77 28 194 20
271 -18z m692 -572 c6 -4 25 -29 43 -55 18 -26 60 -77 93 -113 l60 -64 -217 0
-216 0 7 22 c3 12 25 60 48 107 l41 85 50 12 c62 15 77 16 91 6z m1357 -1482
c30 -34 34 -67 12 -110 -37 -71 -135 -67 -171 8 -22 47 -9 89 36 120 44 30 84
24 123 -18z"/>
<path d="M2842 3544 c-32 -22 -30 -76 4 -103 35 -28 59 -26 91 5 20 20 24 31
19 57 -11 55 -66 75 -114 41z"/>
<path d="M3068 3403 c-36 -43 -27 -93 22 -113 29 -12 65 -1 82 24 14 21 8 73
-10 89 -24 22 -75 22 -94 0z"/>
<path d="M2682 3358 c-22 -11 -39 -49 -33 -78 9 -48 82 -68 114 -32 17 19 22
68 9 88 -8 13 -47 34 -59 33 -4 0 -18 -5 -31 -11z"/>
<path d="M3046 3149 c-51 -40 -25 -119 40 -119 35 0 47 8 63 37 17 33 14 51
-14 78 -30 30 -54 31 -89 4z"/>
<path d="M2772 3104 c-47 -33 -14 -124 45 -124 29 0 73 42 73 68 0 11 -9 31
-21 46 -24 30 -63 34 -97 10z"/>
<path d="M1252 3254 c-41 -28 -20 -104 29 -104 25 0 59 34 59 59 0 17 -42 61
-59 61 -4 0 -17 -7 -29 -16z"/>
<path d="M1426 3134 c-25 -24 -20 -61 10 -81 24 -15 29 -15 53 -2 49 28 32 99
-24 99 -13 0 -31 -7 -39 -16z"/>
<path d="M1105 3086 c-31 -31 -31 -41 0 -71 29 -30 49 -31 75 -5 34 34 20 80
-27 95 -17 4 -29 -1 -48 -19z"/>
<path d="M1402 2928 c-18 -18 -14 -63 8 -83 43 -39 107 15 82 70 -9 19 -19 25
-45 25 -18 0 -38 -5 -45 -12z"/>
<path d="M1187 2892 c-20 -22 -22 -63 -5 -80 17 -17 64 -15 82 4 23 22 20 60
-6 78 -29 21 -51 20 -71 -2z"/>
<path d="M4320 2492 l-205 -127 -185 -5 -185 -5 -3 -342 -2 -342 182 -3 183
-3 218 -132 c120 -73 220 -133 222 -133 3 0 5 275 5 610 0 482 -3 610 -12 610
-7 -1 -105 -58 -218 -128z"/>
</g>
</svg>
